<svg width="55" height="55" viewBox="0 0 55 55" fill="none" xmlns="http://www.w3.org/2000/svg">
<path d="M12.6444 8.99707C14.3081 12.5239 16.9493 11.393 20.4177 10.3434C33.95 6.24822 44.2235 14.1144 45.2078 24.2424C46.82 23.5492 48.7714 24.9242 48.6969 26.4458C48.6224 27.9675 47.3219 29.3081 45.2078 28.8337C45.225 32.2437 41.1642 35.994 48.2683 38.8139C46.0305 40.1878 43.9852 42.0418 40.495 40.2829C35.7123 45.7142 29.1283 47.5303 21.0296 44.6302C12.6444 41.627 10.0113 33.4996 9.52199 27.7933C7.97741 27.5962 6.37897 26.7735 6.30563 24.8485C6.2323 22.9258 8.26959 21.6998 10.0113 23.1699C10.1946 20.287 11.9706 17.6412 13.7467 14.9967C11.4092 12.9032 11.5707 10.9289 12.6444 8.99707Z" stroke="black" stroke-width="2.07449" stroke-linecap="round" stroke-linejoin="round"/>
<path d="M16.7451 17.2625C22.6954 17.9134 27.9903 17.337 31.9858 14.3235C34.0781 18.0887 36.1681 19.2093 38.2604 20.1707M35.6284 30.3342C37.1409 30.0271 37.2933 31.0297 37.1581 31.6198C34.8917 41.5141 21.5462 40.7762 18.8569 32.9055C18.4891 31.8284 19.2396 31.1695 20.4175 31.3448C25.4386 32.0873 30.5261 31.3689 35.6284 30.3342Z" stroke="black" stroke-width="1.14583" stroke-linecap="round" stroke-linejoin="round"/>
<path d="M20.0343 25.206C20.7102 25.206 21.258 24.6582 21.258 23.9823C21.258 23.3064 20.7102 22.7585 20.0343 22.7585C19.3584 22.7585 18.8105 23.3064 18.8105 23.9823C18.8105 24.6582 19.3584 25.206 20.0343 25.206Z" stroke="black" stroke-width="1.14583" stroke-linecap="round" stroke-linejoin="round"/>
<path d="M34.0489 25.0234C34.7248 25.0234 35.2727 24.4755 35.2727 23.7997C35.2727 23.1238 34.7248 22.5759 34.0489 22.5759C33.3731 22.5759 32.8252 23.1238 32.8252 23.7997C32.8252 24.4755 33.3731 25.0234 34.0489 25.0234Z" stroke="black" stroke-width="1.14583" stroke-linecap="round" stroke-linejoin="round"/>
<path d="M24.9033 26.9835C24.9033 25.9694 25.7249 25.1467 26.7389 25.1467C27.7519 25.1467 28.5734 25.9694 28.5734 26.9824L24.9033 26.9835Z" stroke="black" stroke-width="1.14583" stroke-linecap="round" stroke-linejoin="round"/>
</svg>
