<svg width="46" height="46" viewBox="0 0 46 46" fill="none" xmlns="http://www.w3.org/2000/svg">
<path d="M23 28.7502C26.1756 28.7502 28.75 26.1759 28.75 23.0002C28.75 19.8246 26.1756 17.2502 23 17.2502C19.8244 17.2502 17.25 19.8246 17.25 23.0002C17.25 26.1759 19.8244 28.7502 23 28.7502Z" stroke="black" stroke-width="2.875"/>
<path d="M7.01827 20.3935C7.92485 20.9608 8.50752 21.9307 8.50752 23.0002C8.50752 24.0697 7.92485 25.0395 7.01827 25.6068C6.40302 25.9959 6.00435 26.3045 5.7226 26.6725C5.41611 27.072 5.19133 27.528 5.0611 28.0144C4.93086 28.5008 4.89774 29.008 4.9636 29.5072C5.06327 30.2624 5.50985 31.0367 6.4011 32.5835C7.29619 34.1302 7.74277 34.9027 8.34652 35.3684C8.74602 35.6749 9.20199 35.8997 9.68839 36.0299C10.1748 36.1601 10.6821 36.1933 11.1813 36.1274C11.6413 36.0661 12.107 35.8782 12.751 35.5371C13.2121 35.2854 13.7294 35.1548 14.2547 35.1574C14.78 35.1601 15.296 35.296 15.7544 35.5524C16.6802 36.0891 17.2303 37.0762 17.2686 38.1457C17.2954 38.874 17.3644 39.3723 17.5427 39.7997C17.7353 40.2651 18.0178 40.688 18.374 41.0442C18.7302 41.4004 19.153 41.6828 19.6184 41.8755C20.3219 42.1668 21.215 42.1668 23.0014 42.1668C24.7877 42.1668 25.6809 42.1668 26.3843 41.8755C26.8497 41.6828 27.2725 41.4004 27.6287 41.0442C27.9849 40.688 28.2674 40.2651 28.46 39.7997C28.6363 39.3723 28.7073 38.874 28.7341 38.1457C28.7724 37.0762 29.3225 36.0872 30.2483 35.5524C30.7067 35.296 31.2227 35.1601 31.748 35.1574C32.2733 35.1548 32.7906 35.2854 33.2517 35.5371C33.8957 35.8782 34.3633 36.0661 34.8233 36.1274C35.8309 36.2599 36.8498 35.9869 37.6562 35.3684C38.2599 34.9046 38.7065 34.1302 39.5997 32.5835C39.9984 31.8935 40.3069 31.3587 40.5369 30.9102M38.9844 25.6087C38.5361 25.3356 38.1643 24.9532 37.9038 24.4974C37.6434 24.0415 37.5028 23.527 37.4952 23.0021C37.4952 21.9307 38.0779 20.9608 38.9844 20.3916C39.5997 20.0044 39.9964 19.6958 40.2801 19.3278C40.5866 18.9283 40.8114 18.4724 40.9416 17.986C41.0718 17.4996 41.105 16.9923 41.0391 16.4931C40.9394 15.7379 40.4928 14.9636 39.6016 13.4168C38.7065 11.8701 38.2599 11.0977 37.6562 10.6319C37.2567 10.3254 36.8007 10.1006 36.3143 9.97041C35.8279 9.84018 35.3206 9.80705 34.8214 9.87291C34.3614 9.93425 33.8957 10.1221 33.2498 10.4632C32.789 10.7146 32.2719 10.845 31.747 10.8424C31.2221 10.8397 30.7065 10.704 30.2483 10.4479C29.7972 10.179 29.4216 9.80004 29.1568 9.34651C28.892 8.89298 28.7466 8.37969 28.7341 7.85466C28.7073 7.12633 28.6383 6.628 28.46 6.20058C28.2674 5.73518 27.9849 5.3123 27.6287 4.95613C27.2725 4.59996 26.8497 4.31748 26.3843 4.12483C25.6809 3.8335 24.7877 3.8335 23.0014 3.8335C21.215 3.8335 20.3219 3.8335 19.6184 4.12483C19.153 4.31748 18.7302 4.59996 18.374 4.95613C18.0178 5.3123 17.7353 5.73518 17.5427 6.20058C17.3664 6.628 17.2954 7.12633 17.2686 7.85466C17.2561 8.37969 17.1107 8.89298 16.8459 9.34651C16.5811 9.80004 16.2055 10.179 15.7544 10.4479C15.296 10.7043 14.78 10.8402 14.2547 10.8429C13.7294 10.8456 13.2121 10.7149 12.751 10.4632C12.107 10.1221 11.6394 9.93425 11.1794 9.87291C10.1718 9.74041 9.15286 10.0134 8.34652 10.6319C7.74469 11.0977 7.29619 11.8701 6.40302 13.4168C6.00435 14.1068 5.69577 14.6416 5.46577 15.0901" stroke="black" stroke-width="2.875" stroke-linecap="round"/>
</svg>
