<svg width="135" height="128" viewBox="0 0 135 128" fill="none" xmlns="http://www.w3.org/2000/svg">
<path d="M123.261 30.31H104.654L93.913 18.186H52.8261V30.31H88.7478L99.4891 42.4341H123.261V115.178H29.3478V54.5581H17.6087V115.178C17.6087 121.846 22.8913 127.302 29.3478 127.302H123.261C129.717 127.302 135 121.846 135 115.178V42.4341C135 35.7659 129.717 30.31 123.261 30.31ZM46.9565 78.8061C46.9565 95.5373 60.1043 109.116 76.3043 109.116C92.5043 109.116 105.652 95.5373 105.652 78.8061C105.652 62.075 92.5043 48.4961 76.3043 48.4961C60.1043 48.4961 46.9565 62.075 46.9565 78.8061ZM76.3043 60.6201C85.9891 60.6201 93.913 68.8038 93.913 78.8061C93.913 88.8084 85.9891 96.9921 76.3043 96.9921C66.6196 96.9921 58.6956 88.8084 58.6956 78.8061C58.6956 68.8038 66.6196 60.6201 76.3043 60.6201ZM29.3478 48.4961V30.31H46.9565V18.186H29.3478V0H17.6087V18.186H0V30.31H17.6087V48.4961H29.3478Z" fill="white" fill-opacity="0.69"/>
</svg>
